#!OML:ASF E:\CV Data\Top Level 1\Subject 1\Session 1\player.ASF
:FULLY-SPECIFIED
:DEGREES
907
root 10.0017 16.472 -10.512 -1.09614 -80.0068 4.63763
lowerback 4.22624 0.0767788 -8.82718
upperback -1.80533 -0.628016 -3.08382
thorax -4.2172 -0.149201 1.78406
lowerneck -14.8917 12.0096 -4.4506
upperneck 18.2136 15.5327 9.75901
head 6.822 8.06239 5.29835
rclavicle 1.00386e-014 2.38542e-014
rhumerus 143.207 130.931 71.8042
rradius 96.5207
rwrist 10.8352
rhand -38.5447 32.1312
rfingers 7.12502
rthumb -11.5646 2.47023
lclavicle 1.00386e-014 2.38542e-014
lhumerus -42.287 -34.5528 111.05
lradius 104.878
lwrist 22.9372
lhand -39.1377 8.35999
lfingers 7.12502
lthumb -12.1365 37.988
rfemur -41.8121 0.558119 23.777
rtibia 51.9439
rfoot -13.5836 -3.28397
rtoes 20.1087
lfemur 9.27871 10.4966 -22.8036
ltibia 28.4596
lfoot -20.1226 12.0447
ltoes -27.7467
908
root 9.88832 16.4542 -10.504 -1.19108 -80.8137 4.13396
lowerback 3.85914 -1.83869e-005 -8.82245
upperback -1.91507 -0.698815 -3.11854
thorax -4.11781 -0.187187 1.7486
lowerneck -14.7205 12.2349 -4.44929
upperneck 18.6411 15.7428 10.1776
head 6.87512 8.1953 5.45196
rclavicle 1.72943e-014 -4.77083e-014
rhumerus 143.613 130.57 72.2039
rradius 97.3557
rwrist 11.1424
rhand -38.9387 32.6604
rfingers 7.12502
rthumb -11.9445 3.0212
lclavicle 1.72943e-014 -4.77083e-014
lhumerus -42.116 -34.7412 111.176
lradius 105.918
lwrist 21.8727
lhand -39.397 7.95647
lfingers 7.12502
lthumb -12.3865 37.5695
rfemur -40.9328 0.930123 24.0905
rtibia 52.3071
rfoot -14.2331 -2.91975
rtoes 20.1582
lfemur 9.78521 10.5482 -22.5116
ltibia 29.5733
lfoot -19.6057 11.7171
ltoes -28.9764
909
root 9.77142 16.4377 -10.4961 -1.07341 -81.6226 3.39535
lowerback 3.48591 -0.071546 -8.77695
upperback -2.0214 -0.758978 -3.14713
thorax -4.01245 -0.221158 1.69563
lowerneck -14.5429 12.4526 -4.46138
upperneck 19.0772 15.9409 10.6096
head 6.92735 8.32279 5.61079
rclavicle -1.82509e-014 -6.36111e-015
rhumerus 144.082 130.227 72.6763
rradius 98.2175
rwrist 11.5032
rhand -39.4245 33.2145
rfingers 7.12502
rthumb -12.413 3.60303
lclavicle -1.82509e-014 -6.36111e-015
lhumerus -41.9109 -34.9999 111.303
lradius 106.956
lwrist 20.674
lhand -39.6434 7.5456
lfingers 7.12502
lthumb -12.624 37.1441
rfemur -39.9815 1.31761 24.4288
rtibia 52.6171
rfoot -14.8524 -2.59064
rtoes 20.1728
lfemur 10.2148 10.6 -22.1683
ltibia 30.8743
lfoot -18.9791 11.2566
ltoes -30.172
910
root 9.65162 16.423 -10.4885 -0.670102 -82.4312 2.34079
lowerback 3.12499 -0.132688 -8.68314
upperback -2.12425 -0.804022 -3.17139
thorax -3.91207 -0.24868 1.61907
lowerneck -14.3511 12.6579 -4.49657
upperneck 19.5142 16.1221 11.0569
head 6.97413 8.44214 5.77514
rclavicle 7.45443e-016 1.59028e-015
rhumerus 144.616 129.916 73.2241
rradius 99.1042
rwrist 11.8874
rhand -39.8869 33.811
rfingers 7.12502
rthumb -12.8588 4.22708
lclavicle 7.45443e-016 1.59028e-015
lhumerus -41.6808 -35.3528 111.429
lradius 107.989
lwrist 19.3499
lhand -39.8754 7.14389
lfingers 7.12502
lthumb -12.8477 36.7285
rfemur -38.9496 1.71448 24.7959
rtibia 52.8704
rfoot -15.4349 -2.30459
rtoes 20.1198
lfemur 10.5526 10.6418 -21.7726
ltibia 32.3867
lfoot -18.2079 10.6452
ltoes -31.1996
911
root 9.52961 16.4099 -10.4812 0.0406942 -83.2359 0.944548
lowerback 2.79067 -0.179024 -8.54624
upperback -2.22239 -0.830875 -3.19887
thorax -3.82391 -0.268035 1.51413
lowerneck -14.1531 12.848 -4.53053
upperneck 19.956 16.2788 11.509
head 7.02202 8.55009 5.93932
rclavicle 1.32689e-014 2.70347e-014
rhumerus 145.22 129.657 73.8435
rradius 100.011
rwrist 12.2761
rhand -40.305 34.4549
rfingers 7.12502
rthumb -13.2618 4.89681
lclavicle 1.32689e-014 2.70347e-014
lhumerus -41.4114 -35.8101 111.543
lradius 109.004
lwrist 17.9285
lhand -40.105 6.75233
lfingers 7.12502
lthumb -13.069 36.3229
rfemur -37.8373 2.11117 25.1853
rtibia 53.067
rfoot -15.9755 -2.06161
rtoes 20.012
lfemur 10.7794 10.7187 -21.3111
ltibia 34.1385
lfoot -17.2443 9.8357
ltoes -32.0175
912
root 9.40624 16.3985 -10.4746 1.09061 -84.0281 -0.824519
lowerback 2.49635 -0.209608 -8.37425
upperback -2.31551 -0.840609 -3.23223
thorax -3.75507 -0.27937 1.38288
lowerneck -13.9416 13.0184 -4.61325
upperneck 20.3878 16.411 11.9947
head 7.05754 8.64648 6.11687
rclavicle -6.26172e-015 -1.59028e-014
rhumerus 145.899 129.461 74.5379
rradius 100.941
rwrist 12.6455
rhand -40.6513 35.1233
rfingers 7.12502
rthumb -13.5956 5.58725
lclavicle -6.26172e-015 -1.59028e-014
lhumerus -41.0917 -36.3714 111.632
lradius 110.002
lwrist 16.4574
lhand -40.2737 6.34071
lfingers 7.12502
lthumb -13.2316 35.9008
rfemur -36.6508 2.4933 25.588
rtibia 53.2093
rfoot -16.4735 -1.85559
rtoes 19.8502
lfemur 10.8695 10.8362 -20.7882
ltibia 36.149
lfoot -16.0141 8.81936
ltoes -32.6789
913
root 9.28254 16.3887 -10.4689 2.87217 -84.8052 -3.35693
lowerback 2.24868 -0.239698 -8.17304
upperback -2.40015 -0.852256 -3.24139
thorax -3.70342 -0.291246 1.26098
lowerneck -13.7567 13.1852 -4.69935
upperneck 20.8391 16.5419 12.4555
head 7.10503 8.73948 6.29129
rclavicle 2.88238e-015 2.06736e-014
rhumerus 146.654 129.269 75.3106
rradius 101.881
rwrist 13.0087
rhand -40.9194 35.7363
rfingers 7.12502
rthumb -13.854 6.21774
lclavicle 2.88238e-015 2.06736e-014
lhumerus -40.6649 -36.9778 111.669
lradius 110.973
lwrist 14.9829
lhand -40.4214 5.89992
lfingers 7.12502
lthumb -13.374 35.4507
rfemur -35.3999 2.86095 26.0279
rtibia 53.302
rfoot -16.9329 -1.6798
rtoes 19.6484
lfemur 10.8006 11.0101 -20.1682
ltibia 38.4261
lfoot -14.4536 7.56792
ltoes -32.9603
914
root 9.15927 16.3799 -10.4639 5.45152 -85.5637 -6.71627
lowerback 2.05974 -0.249029 -7.95482
upperback -2.47926 -0.842326 -3.24839
thorax -3.68112 -0.29191 1.13119
lowerneck -13.5706 13.3299 -4.82192
upperneck 21.2807 16.6459 12.9314
head 7.14557 8.81864 6.47313
rclavicle 1.0138e-014 4.45278e-014
rhumerus 147.49 129.151 76.1663
rradius 102.835
rwrist 13.3644
rhand -41.103 36.2843
rfingers 7.12502
rthumb -14.0309 6.77785
lclavicle 1.0138e-014 4.45278e-014
lhumerus -40.154 -37.6733 111.672
lradius 111.91
lwrist 13.5447
lhand -40.5558 5.3417
lfingers 7.12502
lthumb -13.5035 34.8839
rfemur -34.0939 3.20525 26.4765
rtibia 53.3529
rfoot -17.3632 -1.51187
rtoes 19.4323
lfemur 10.5597 11.2378 -19.4769
ltibia 40.9627
lfoot -12.5078 6.08515
ltoes -32.7711
